<?xml version="1.0" encoding="iso-8859-1"?>
<!-- Generator: Adobe Illustrator 18.0.0, SVG Export Plug-In . SVG Version: 6.00 Build 0)  -->
<!DOCTYPE svg PUBLIC "-//W3C//DTD SVG 1.1//EN" "http://www.w3.org/Graphics/SVG/1.1/DTD/svg11.dtd">
<svg version="1.1" id="_x34_" xmlns="http://www.w3.org/2000/svg" xmlns:xlink="http://www.w3.org/1999/xlink" x="0px" y="0px"
	 viewBox="0 0 512 512" style="enable-background:new 0 0 512 512;" xml:space="preserve">
<g>
	<g>
		<path style="fill:#796A56;" d="M512,248.331c0,123.545-114.569,170.689-256,170.689h-1.397
			c-68.82-0.133-131.191-11.503-177.006-37.569c-26.863-15.16-48.008-35.441-61.373-61.44C5.718,299.73,0,275.925,0,248.331
			c0-29.191,6.383-56.253,18.152-80.524c6.583-13.897,14.961-26.863,24.802-38.832c-1.729-9.309-21.943-118.757,5.984-127.734
			c26.065-8.378,86.84,28.127,99.674,36.106c1.529,0.997,2.394,1.529,2.394,1.529H256l-1.397,0.598c0.465,0,0.932-0.066,1.397-0.066
			c0.531,0,0.997,0.066,1.462,0.066L256,38.876h105.059c0,0,71.947-46.413,101.47-37.768c0.199,0,0.399,0.066,0.598,0.133
			c4.123,1.33,7.248,4.854,9.442,9.908c12.9,29.257-1.995,109.914-3.458,117.826C496.174,161.889,512,202.517,512,248.331z"/>
		<g>
			<path style="fill:#E0B196;" d="M70.771,89.445c-1.312-14.052-1.831-40.393-1.422-49.669c11.481,3.4,36.091,10.815,49.26,17.854
				L70.771,89.445z"/>
			<path style="fill:#E0B196;" d="M393.408,57.62c13.727-7.338,38.234-14.565,49.292-17.87c0.416,9.289-0.104,35.643-1.416,49.705
				L393.408,57.62z"/>
		</g>
		<path style="fill:#FFFFFF;" d="M373.193,282.195C339.719,243.941,272.764,79.156,272.764,79.156h-16.74h-16.747
			c0,0-66.948,164.786-100.428,203.039c-32.293,36.899-24.89,116.23,109.571,121.779l-0.007,0.331c2.611,0,5.078-0.084,7.611-0.133
			c2.532,0.048,5,0.133,7.61,0.133l-0.007-0.331C398.083,398.425,405.485,319.094,373.193,282.195z"/>
		<path style="fill:#796A56;" d="M302.836,314.37l-37.98-17.266v-23.74c0-4.873-3.961-8.824-8.831-8.824
			c-4.871,0-8.832,3.951-8.832,8.824v23.74l-37.98,17.266c-4.435,2.019-6.396,7.253-4.377,11.688
			c2.019,4.438,7.241,6.403,11.688,4.387l39.501-17.955l39.5,17.955c4.448,2.016,9.669,0.052,11.688-4.387
			C309.232,321.623,307.271,316.393,302.836,314.37z"/>
		<ellipse style="fill:#E0B196;" cx="256.024" cy="234.133" rx="60.325" ry="39.721"/>
		<g>
			<g>
				<path style="fill:#796A56;" d="M234.076,252.5c3.259,5.195,2.532,11.5-1.598,14.088c-4.123,2.581-10.116,0.464-13.363-4.73
					c-3.247-5.195-2.533-11.503,1.597-14.081C224.849,245.191,230.836,247.302,234.076,252.5z"/>
			</g>
			<g>
				<path style="fill:#796A56;" d="M277.972,252.5c-3.26,5.195-2.532,11.5,1.598,14.088c4.123,2.581,10.117,0.464,13.363-4.73
					c3.247-5.195,2.533-11.503-1.597-14.081C287.199,245.191,281.212,247.302,277.972,252.5z"/>
			</g>
		</g>
		<g>
			<g>
				<path style="fill:#FFFFFF;" d="M136.53,159.555c-21.175-4.659-41.876,5.587-49.786,23.416
					c-0.292,19.5,14.195,37.487,35.37,42.143c21.178,4.659,41.883-5.588,49.786-23.416
					C172.2,182.202,157.706,164.211,136.53,159.555z"/>
				<path style="fill:#796A56;" d="M144.781,192.247c0-10.205-6.809-18.691-15.802-20.526c-8.987,1.835-15.792,10.321-15.792,20.526
					c0,10.195,6.805,18.679,15.792,20.513C137.972,210.925,144.781,202.441,144.781,192.247z"/>
			</g>
			<g>
				<path style="fill:#FFFFFF;" d="M375.518,159.555c21.168-4.659,41.87,5.587,49.786,23.416
					c0.292,19.5-14.195,37.487-35.371,42.143c-21.169,4.659-41.876-5.588-49.786-23.416
					C339.849,182.202,354.343,164.211,375.518,159.555z"/>
				<path style="fill:#796A56;" d="M367.271,192.247c0-10.205,6.806-18.691,15.805-20.526c8.993,1.835,15.792,10.321,15.792,20.526
					c0,10.195-6.799,18.679-15.792,20.513C374.076,210.925,367.271,202.441,367.271,192.247z"/>
			</g>
		</g>
	</g>
	<g style="opacity:0.1;">
		<path style="fill:#231815;" d="M512,248.331c0,123.545-114.569,170.689-256,170.689h-1.397V39.474
			c0.465,0,0.932-0.066,1.397-0.066c0.531,0,0.997,0.066,1.462,0.066L256,38.876h105.059c0,0,71.947-46.413,101.47-37.768
			c0.199,0,0.399,0.066,0.598,0.133c4.123,1.33,7.248,4.854,9.442,9.908c12.9,29.257-1.995,109.914-3.458,117.826
			C496.174,161.889,512,202.517,512,248.331z"/>
		<polygon style="fill:#231815;" points="256,38.876 254.603,39.474 254.603,38.876 		"/>
	</g>
</g>
</svg>
